<svg width="894" height="979" viewBox="0 0 894 979" fill="none" xmlns="http://www.w3.org/2000/svg">
<path d="M837.73 203.85C800.33 138.43 747.13 88.09 678.1 52.85C609.07 17.63 527.1 0 432.18 0H88.12V802.57H0V978.98H181.84V873.64H432.18C526.37 873.64 607.99 855.84 677.02 820.25C746.05 784.66 799.44 734.15 837.19 668.71C874.94 603.29 893.82 525.98 893.82 436.82C893.82 347.66 875.11 269.29 837.73 203.85ZM638.73 641.21C591.62 692.63 522.78 718.33 432.18 718.33H270.39V155.32H432.18C522.78 155.32 591.62 180.85 638.73 231.9C685.81 282.96 709.38 351.27 709.38 436.83C709.38 522.39 685.82 589.82 638.73 641.22V641.21Z" fill="#0B154F"/>
</svg>
