<svg width="835" height="815" viewBox="0 0 835 815" fill="none" xmlns="http://www.w3.org/2000/svg">
<g clip-path="url(#clip0_1_126)">
<path d="M395.444 432.736H382.734V579.787H596.004C591.843 590.516 585.842 600.633 578.044 610.272C561.075 631.118 538.008 647.378 508.7 659.098C479.393 670.817 446.545 676.633 410.103 676.633C360.613 676.633 317.648 665.763 281.206 643.926C244.764 622.133 216.448 591.224 196.266 551.188C176.085 511.152 165.967 463.787 165.967 409.147C165.967 354.506 175.89 309.221 195.797 269.522C215.598 229.814 243.631 199.373 279.745 178.2C315.86 157.071 358.347 146.485 407.182 146.485C458.565 146.485 500.583 158.063 533.104 181.13C565.669 204.241 585.523 236.957 592.658 279.259H765.511C757.049 221.351 736.682 171.535 704.489 129.897C672.251 88.2503 631.082 56.1633 580.982 33.7068C530.812 11.2504 472.869 0 407.164 0C325.765 0 254.492 16.9685 193.327 50.8169C132.119 84.6565 84.6123 132.163 50.7638 193.327C16.9242 254.536 0 326.145 0 408.155C0 490.165 16.402 558.845 49.3033 620.009C82.1515 681.218 127.719 728.91 185.998 763.086C244.233 797.262 311.779 814.328 388.584 814.328C441.331 814.328 486.571 805.538 524.288 787.95C560.606 771.044 594.384 737.832 613.149 705.17V814.328H765.494V432.736H395.444Z" fill="#0B154F"/>
<path d="M765.502 744.967V814.31H613.158V579.77H382.725V432.718H452.112V510.426H682.545V744.967H765.502Z" fill="#0B154F"/>
<path d="M765.502 432.718V744.967H682.545V510.426H452.112V432.718H765.502Z" fill="#253373"/>
<path d="M834.89 363.375V744.967H765.502V432.718H452.112V363.375H834.89Z" fill="#00D692"/>
</g>
<defs>
<clipPath id="clip0_1_126">
<rect width="834.89" height="814.328" fill="white"/>
</clipPath>
</defs>
</svg>
