<svg width="835" height="815" viewBox="0 0 835 815" fill="none" xmlns="http://www.w3.org/2000/svg">
<g clip-path="url(#clip0_1_197)">
<path d="M395.444 432.738H382.729V579.785H595.998C591.84 590.517 585.832 600.626 578.032 610.276C561.062 631.117 537.998 647.377 508.686 659.106C479.384 670.825 446.527 676.641 410.086 676.641C360.594 676.641 317.628 665.766 281.187 643.928C244.746 622.138 216.431 591.226 196.251 551.192C176.071 511.158 165.953 463.794 165.953 409.156C165.953 354.519 175.88 309.234 195.782 269.526C215.588 229.818 243.616 199.385 279.731 178.208C315.846 157.08 358.333 146.491 407.163 146.491C458.543 146.491 500.56 158.076 533.082 181.14C565.652 204.252 585.506 236.966 592.635 279.271H765.496C757.035 221.366 736.664 171.549 704.477 129.905C672.243 88.2609 631.069 56.1704 580.964 33.7099C530.821 11.2494 472.868 0 407.163 0C325.773 0 254.491 16.9699 193.319 50.814C132.109 84.658 84.6005 132.166 50.7565 193.329C16.922 254.539 0 326.147 0 408.16C0 490.173 16.4046 558.848 49.3 620.011C82.1475 681.222 127.72 728.912 185.999 763.091C244.229 797.261 311.773 814.327 388.584 814.327C441.333 814.327 486.57 805.53 524.286 787.947C560.602 771.044 594.379 737.823 613.15 705.167V814.317H765.496V432.738H395.444Z" fill="white"/>
<path d="M765.506 744.971V814.317H613.16V579.766H382.729V432.719H452.113V510.43H682.544V744.971H765.506Z" fill="white"/>
<path d="M765.506 432.719V744.971H682.544V510.43H452.113V432.719H765.506Z" fill="#E0FAF2"/>
<path d="M834.89 363.383V744.972H765.506V432.719H452.113V363.383H834.89Z" fill="#99EFD3"/>
</g>
<defs>
<clipPath id="clip0_1_197">
<rect width="834.89" height="814.327" fill="white"/>
</clipPath>
</defs>
</svg>
