<svg width="835" height="815" viewBox="0 0 835 815" fill="none" xmlns="http://www.w3.org/2000/svg">
<g clip-path="url(#clip0_1_119)">
<path d="M395.44 432.74H382.72V579.79H595.99C591.83 590.52 585.83 600.64 578.03 610.28C561.06 631.13 537.99 647.39 508.69 659.11C479.38 670.83 446.53 676.65 410.09 676.65C360.6 676.65 317.63 665.78 281.19 643.94C244.75 622.15 216.43 591.24 196.25 551.2C176.07 511.16 165.95 463.8 165.95 409.16C165.95 354.52 175.88 309.24 195.78 269.53C215.59 229.82 243.62 199.38 279.73 178.21C315.84 157.08 358.34 146.49 407.16 146.49C458.54 146.49 500.56 158.07 533.08 181.14C565.65 204.25 585.5 236.96 592.64 279.27H765.5C757.04 221.37 736.67 171.55 704.48 129.9C672.24 88.26 631.07 56.16 580.97 33.71C530.82 11.25 472.87 0 407.17 0C325.77 0 254.49 16.97 193.33 50.81C132.12 84.65 84.61 132.16 50.77 193.32C16.92 254.54 0 326.15 0 408.16C0 490.17 16.4 558.85 49.3 620.01C82.15 681.22 127.72 728.92 186 763.09C244.23 797.26 311.78 814.33 388.59 814.33C441.34 814.33 486.58 805.54 524.3 787.95C560.61 771.04 594.39 737.83 613.16 705.17V814.32H765.5V432.74H395.44Z" fill="white"/>
<path d="M765.5 744.97V814.31H613.16V579.77H382.73V432.72H452.12V510.43H682.55V744.97H765.5Z" fill="white"/>
<path d="M765.5 432.72V744.97H682.55V510.43H452.12V432.72H765.5Z" fill="#99EFD3"/>
<path d="M834.89 363.38V744.97H765.5V432.72H452.12V363.38H834.89Z" fill="#00D692"/>
</g>
<defs>
<clipPath id="clip0_1_119">
<rect width="834.89" height="814.33" fill="white"/>
</clipPath>
</defs>
</svg>
