<svg width="3000" height="611" viewBox="0 0 3000 611" fill="none" xmlns="http://www.w3.org/2000/svg">
<path d="M1515.27 258.075H1508.01V342.17H1629.98C1627.59 348.312 1624.17 354.085 1619.71 359.607C1610.01 371.522 1596.82 380.819 1580.05 387.532C1563.29 394.228 1544.51 397.568 1523.66 397.568C1495.37 397.568 1470.78 391.358 1449.96 378.856C1429.11 366.387 1412.92 348.715 1401.39 325.824C1389.84 302.933 1384.07 275.847 1384.07 244.599C1384.07 213.351 1389.74 187.456 1401.12 164.75C1412.45 142.044 1428.47 124.641 1449.13 112.524C1469.79 100.441 1494.09 94.3825 1522.02 94.3825C1551.4 94.3825 1575.44 101.011 1594.03 114.202C1612.66 127.426 1624 146.122 1628.1 170.321H1726.94C1722.11 137.21 1710.45 108.714 1692.05 84.9006C1673.61 61.0868 1650.08 42.7272 1621.42 29.8889C1592.74 17.0506 1559.59 10.623 1522.02 10.623C1475.46 10.623 1434.7 20.3231 1399.73 39.6896C1364.72 59.0394 1337.55 86.2096 1318.2 121.183C1298.85 156.191 1289.17 197.139 1289.17 244.045C1289.17 290.951 1298.55 330.221 1317.36 365.195C1336.14 400.202 1362.2 427.473 1395.53 447.025C1428.83 466.576 1467.46 476.326 1511.39 476.326C1541.57 476.326 1567.43 471.291 1589 461.239C1609.75 451.572 1629.09 432.575 1639.81 413.897V476.326H1726.93V258.075H1515.31H1515.27Z" fill="#0B154F"/>
<path d="M45.6135 469.596V17.3022H223.739C272.877 17.3022 315.319 26.4317 351.048 44.6571C386.777 62.8992 414.333 88.9618 433.683 122.828C453.032 156.711 462.716 196.904 462.716 243.441C462.716 289.978 452.948 329.617 433.397 363.5C413.846 397.383 386.206 423.53 350.477 441.956C314.748 460.383 272.491 469.596 223.722 469.596H45.6135ZM139.979 389.193H223.739C270.645 389.193 306.29 375.885 330.674 349.269C355.042 322.652 367.242 287.376 367.242 243.458C367.242 199.539 355.042 163.793 330.674 137.361C306.29 110.93 270.645 97.722 223.739 97.722H139.979V389.193Z" fill="#0B154F"/>
<path d="M573.293 101.632C559.145 101.632 547.129 96.6984 537.278 86.8305C527.411 76.9794 522.477 64.9635 522.477 50.8162C522.477 36.6689 527.411 24.6697 537.278 14.8018C547.146 4.95072 559.145 0 573.293 0C587.44 0 599.439 4.93393 609.307 14.8018C619.175 24.6697 624.109 36.6689 624.109 50.8162C624.109 64.9635 619.175 76.9794 609.307 86.8305C599.439 96.6984 587.44 101.632 573.293 101.632ZM526.941 469.613V134.576H619.628V469.613H526.941Z" fill="#0B154F"/>
<path d="M855.82 610.314C805.557 610.314 764.71 600.161 733.26 579.888C701.794 559.599 683.098 531.388 677.141 495.29H775.417C784.345 522.829 810.223 536.607 853.034 536.607C882.067 536.607 904.303 529.995 919.759 516.788C935.199 503.563 942.935 484.482 942.935 459.561V414.887H940.15C930.097 432.76 916.218 446.353 898.547 455.651C880.858 464.965 859.747 469.613 835.178 469.613C803.527 469.613 776.071 462.632 752.811 448.669C729.551 434.707 711.494 414.887 698.655 389.193C685.817 363.5 679.389 333.359 679.389 298.738C679.389 246.63 693.805 205.128 722.67 174.215C751.519 143.319 791.074 127.863 841.32 127.863C869.614 127.863 893.713 133.267 913.634 144.057C933.537 154.865 949.464 169.935 961.379 189.285H984.824V134.559H1078.64V226.139H1032.85V460.668C1032.85 508.313 1017.58 545.166 987.072 571.229C956.546 597.275 912.812 610.314 855.853 610.314H855.82ZM858.052 389.193C883.745 389.193 903.833 382.128 918.366 367.981C932.883 353.834 940.15 334.484 940.15 309.915V286.47C940.15 262.271 932.799 243.189 918.098 229.243C903.38 215.281 883.376 208.299 858.068 208.299C830.898 208.299 809.77 216.304 794.699 232.315C779.629 248.325 772.077 270.662 772.077 299.325C772.077 327.989 779.612 350.142 794.699 365.766C809.77 381.407 830.898 389.21 858.068 389.21L858.052 389.193Z" fill="#0B154F"/>
<path d="M1178.57 101.632C1164.43 101.632 1152.41 96.6984 1142.56 86.8305C1132.69 76.9794 1127.76 64.9635 1127.76 50.8162C1127.76 36.6689 1132.69 24.6697 1142.56 14.8018C1152.43 4.95072 1164.43 0 1178.57 0C1192.72 0 1204.72 4.93393 1214.59 14.8018C1224.45 24.6697 1229.39 36.6689 1229.39 50.8162C1229.39 64.9635 1224.45 76.9794 1214.59 86.8305C1204.72 96.6984 1192.72 101.632 1178.57 101.632ZM1132.22 469.613V134.576H1224.91V469.613H1132.22Z" fill="#0B154F"/>
<path d="M1726.91 436.637V476.293H1639.78V342.17H1508.01V258.075H1547.69V302.514H1679.47V436.637H1726.91Z" fill="#0B154F"/>
<path d="M1726.91 258.075V436.637H1679.47V302.514H1547.69V258.075H1726.91Z" fill="#253373"/>
<path d="M1766.58 218.419V436.636H1726.91V258.075H1547.69V218.419H1766.58Z" fill="#00D692"/>
<path d="M1828.53 469.597V226.139H1782.74V134.559H1876.56V200.446H1900C1908.93 177.001 1923.08 159.497 1942.44 147.951C1961.79 136.422 1983.58 130.649 2007.78 130.649H2036.25V211.052H2003.87C1974.83 211.052 1953.52 219.242 1939.93 235.621C1926.33 252 1919.55 273.599 1919.55 300.4V469.597H1828.54H1828.53Z" fill="#0B154F"/>
<path d="M2231.68 476.309C2195.2 476.309 2163.46 469.143 2136.48 454.811C2109.49 440.479 2088.55 420.19 2073.66 393.943C2058.78 367.695 2051.32 336.9 2051.32 301.524C2051.32 266.147 2058.68 235.453 2073.38 209.39C2088.08 183.344 2109.11 163.239 2136.48 149.092C2163.83 134.945 2195.75 127.879 2232.24 127.879C2268.72 127.879 2300.27 134.961 2326.89 149.092C2353.5 163.239 2374.16 183.344 2388.86 209.39C2403.56 235.453 2410.91 266.348 2410.91 302.077C2410.91 337.807 2403.65 368.249 2389.13 394.496C2374.62 420.744 2353.86 440.933 2326.87 455.08C2299.87 469.227 2268.15 476.292 2231.67 476.292L2231.68 476.309ZM2231.68 395.906C2259.61 395.906 2281 387.448 2295.89 370.498C2310.78 353.565 2318.23 330.573 2318.23 301.54C2318.23 272.507 2310.78 249.701 2295.89 233.137C2280.99 216.573 2259.59 208.282 2231.68 208.282C2203.77 208.282 2181.71 216.573 2166.63 233.137C2151.56 249.701 2144.01 272.507 2144.01 301.54C2144.01 330.573 2151.55 353.565 2166.63 370.498C2181.71 387.448 2203.39 395.906 2231.68 395.906Z" fill="#0B154F"/>
<path d="M2536.55 469.596L2428.22 134.559H2523.14L2590.15 353.447H2592.93L2671.1 134.559H2758.22L2836.39 353.447H2839.18L2906.19 134.559H3000L2892.23 469.596H2793.4L2715.22 257.403H2712.99L2635.38 469.596H2536.55Z" fill="#0B154F"/>
<path d="M94.1475 432.81H0V524.138H94.1475V432.81Z" fill="#0B154F"/>
</svg>